<svg width="62" height="56" viewBox="0 0 62 56" fill="none" xmlns="http://www.w3.org/2000/svg">
<path d="M31 49.5C43 57 53 57.9411 53 48C53 38.0589 43.1503 30 31 30C18.8497 30 9 38.0589 9 48C9 57.9411 19 57 31 49.5Z" fill="white"/>
<path d="M22.7127 20.6212C27.1141 20.2361 30.292 15.4638 29.8107 9.96199C29.3293 4.46015 25.371 0.312207 20.9696 0.697285C16.5681 1.08236 13.3902 5.85465 13.8716 11.3565C14.3529 16.8583 18.3112 21.0063 22.7127 20.6212Z" fill="white"/>
<path d="M9.71267 34.6212C14.1141 34.2361 17.292 29.4638 16.8107 23.962C16.3293 18.4602 12.371 14.3122 7.96956 14.6973C3.56809 15.0824 0.39021 19.8546 0.871557 25.3565C1.35291 30.8583 5.31121 35.0063 9.71267 34.6212Z" fill="white"/>
<path d="M38.9696 20.962C43.3711 21.347 47.3294 17.1991 47.8107 11.6973C48.2921 6.19543 45.1142 1.42314 40.7127 1.03807C36.3113 0.652988 32.353 4.80094 31.8716 10.3028C31.3903 15.8046 34.5681 20.5769 38.9696 20.962Z" fill="white"/>
<path d="M51.9696 34.6211C56.3711 35.0062 60.3294 30.8583 60.8107 25.3564C61.2921 19.8546 58.1142 15.0823 53.7127 14.6972C49.3113 14.3122 45.353 18.4601 44.8716 23.9619C44.3903 29.4638 47.5681 34.2361 51.9696 34.6211Z" fill="white"/>
</svg>
